<?xml version="1.0" encoding="utf-8"?>
<!-- Generator: Adobe Illustrator 21.0.2, SVG Export Plug-In . SVG Version: 6.00 Build 0)  -->
<svg version="1.1" id="Layer_1" xmlns="http://www.w3.org/2000/svg" xmlns:xlink="http://www.w3.org/1999/xlink" x="0px" y="0px"
	 viewBox="0 0 600 600" style="enable-background:new 0 0 600 600;" xml:space="preserve">
<style type="text/css">
	.st0{fill:#FFFFFF;}
</style>
<g>
	<path class="st0" d="M301.1,190.8c35.6,0,39.8,0.1,53.9,0.8c13,0.6,20.1,2.8,24.7,4.6c6.2,2.4,10.7,5.3,15.3,10
		c4.7,4.7,7.6,9.1,10,15.3c1.8,4.7,4,11.8,4.6,24.7c0.6,14.1,0.8,18.3,0.8,53.9s-0.1,39.8-0.8,53.9c-0.6,13-2.8,20.1-4.6,24.7
		c-2.4,6.2-5.3,10.7-10,15.3c-4.7,4.7-9.1,7.6-15.3,10c-4.7,1.8-11.8,4-24.7,4.6c-14.1,0.6-18.3,0.8-53.9,0.8
		c-35.6,0-39.8-0.1-53.9-0.8c-13-0.6-20.1-2.8-24.7-4.6c-6.2-2.4-10.7-5.3-15.3-10c-4.7-4.7-7.6-9.1-10-15.3
		c-1.8-4.7-4-11.8-4.6-24.7c-0.6-14.1-0.8-18.3-0.8-53.9s0.1-39.8,0.8-53.9c0.6-13,2.8-20.1,4.6-24.7c2.4-6.2,5.3-10.7,10-15.3
		c4.7-4.7,9.1-7.6,15.3-10c4.7-1.8,11.8-4,24.7-4.6C261.3,190.9,265.6,190.8,301.1,190.8 M301.1,166.8c-36.2,0-40.7,0.2-55,0.8
		c-14.2,0.6-23.9,2.9-32.4,6.2c-8.8,3.4-16.2,8-23.6,15.4c-7.4,7.4-12,14.8-15.4,23.6c-3.3,8.5-5.5,18.2-6.2,32.4
		c-0.6,14.2-0.8,18.8-0.8,55c0,36.2,0.2,40.7,0.8,55c0.6,14.2,2.9,23.9,6.2,32.4c3.4,8.8,8,16.2,15.4,23.6
		c7.4,7.4,14.8,12,23.6,15.4c8.5,3.3,18.2,5.5,32.4,6.2c14.2,0.6,18.8,0.8,55,0.8c36.2,0,40.7-0.2,55-0.8
		c14.2-0.6,23.9-2.9,32.4-6.2c8.8-3.4,16.2-8,23.6-15.4c7.4-7.4,12-14.8,15.4-23.6c3.3-8.5,5.5-18.2,6.2-32.4
		c0.6-14.2,0.8-18.8,0.8-55s-0.2-40.7-0.8-55c-0.6-14.2-2.9-23.9-6.2-32.4c-3.4-8.8-8-16.2-15.4-23.6c-7.4-7.4-14.8-12-23.6-15.4
		c-8.5-3.3-18.2-5.5-32.4-6.2C341.9,166.9,337.3,166.8,301.1,166.8L301.1,166.8z"/>
	<path class="st0" d="M301.1,231.6c-37.8,0-68.4,30.6-68.4,68.4s30.6,68.4,68.4,68.4s68.4-30.6,68.4-68.4S338.9,231.6,301.1,231.6z
		 M301.1,344.5c-24.5,0-44.4-19.9-44.4-44.4c0-24.5,19.9-44.4,44.4-44.4c24.5,0,44.4,19.9,44.4,44.4
		C345.6,324.6,325.7,344.5,301.1,344.5z"/>
	<circle class="st0" cx="372.3" cy="228.9" r="16"/>
</g>
</svg>
