<?xml version="1.0" encoding="utf-8"?>
<!-- Generator: Adobe Illustrator 21.0.2, SVG Export Plug-In . SVG Version: 6.00 Build 0)  -->
<svg version="1.1" id="Layer_1" xmlns="http://www.w3.org/2000/svg" xmlns:xlink="http://www.w3.org/1999/xlink" x="0px" y="0px"
	 viewBox="0 0 600 600" style="enable-background:new 0 0 600 600;" xml:space="preserve">
<style type="text/css">
	.st0{fill:#FFFFFF;}
</style>
<path class="st0" d="M428.8,236c-3.1-11.5-12.2-20.6-23.7-23.7c-20.9-5.6-104.8-5.6-104.8-5.6s-83.9,0-104.8,5.6
	c-11.5,3.1-20.6,12.2-23.7,23.7c-5.6,20.9-5.6,64.6-5.6,64.6s0,43.6,5.6,64.6c3.1,11.5,12.2,20.6,23.7,23.7
	c20.9,5.6,104.8,5.6,104.8,5.6s83.9,0,104.8-5.6c11.5-3.1,20.6-12.2,23.7-23.7c5.6-20.9,5.6-64.6,5.6-64.6S434.4,256.9,428.8,236z
	 M273.5,340.8v-80.5l69.7,40.2L273.5,340.8z"/>
</svg>
